<svg width="45" height="42" viewBox="0 0 45 42" fill="none" xmlns="http://www.w3.org/2000/svg">
<path d="M37.5793 0H13.591C11.8383 0 10.4123 1.33098 10.4123 2.96677V6.52775H7.42069C5.66805 6.52775 4.242 7.85856 4.242 9.49452V39.0332C4.242 40.669 5.66805 42 7.42069 42H31.4089C33.1615 42 34.5875 40.669 34.5875 39.0332V35.4724H37.5793C39.332 35.4724 40.758 34.1414 40.758 32.5057V2.96677C40.758 1.33098 39.3321 0 37.5793 0ZM31.863 39.0332C31.863 39.2629 31.655 39.4571 31.4089 39.4571H7.42069C7.17457 39.4571 6.96659 39.2629 6.96659 39.0332V9.49452C6.96659 9.26464 7.17457 9.07069 7.42069 9.07069H31.4089C31.655 9.07069 31.863 9.26464 31.863 9.49452V39.0332V39.0332ZM38.0334 32.5057C38.0334 32.7354 37.8254 32.9295 37.5793 32.9295H34.5875V9.49452C34.5875 7.85856 33.1615 6.52775 31.4089 6.52775H13.1369V2.96677C13.1369 2.73706 13.3447 2.54295 13.591 2.54295H37.5793C37.8254 2.54295 38.0334 2.73706 38.0334 2.96677V32.5057Z" fill="#FBFBFB"/>
<path d="M27.1647 13.0743H11.6649C10.9124 13.0743 10.3026 13.6434 10.3026 14.3458C10.3026 15.0481 10.9124 15.6173 11.6649 15.6173H27.1647C27.9172 15.6173 28.527 15.0481 28.527 14.3458C28.527 13.6436 27.9172 13.0743 27.1647 13.0743Z" fill="#FBFBFB"/>
<path d="M27.1647 18.8005H11.6649C10.9124 18.8005 10.3026 19.3696 10.3026 20.072C10.3026 20.7744 10.9124 21.3435 11.6649 21.3435H27.1647C27.9172 21.3435 28.527 20.7744 28.527 20.072C28.527 19.3696 27.9172 18.8005 27.1647 18.8005Z" fill="#FBFBFB"/>
<path d="M27.1647 24.5269H11.6649C10.9124 24.5269 10.3026 25.096 10.3026 25.7984C10.3026 26.5007 10.9124 27.0698 11.6649 27.0698H27.1647C27.9172 27.0698 28.527 26.5007 28.527 25.7984C28.527 25.096 27.9172 24.5269 27.1647 24.5269Z" fill="#FBFBFB"/>
<path d="M27.1647 30.2531H11.6649C10.9124 30.2531 10.3026 30.8222 10.3026 31.5246C10.3026 32.2269 10.9124 32.7961 11.6649 32.7961H27.1647C27.9172 32.7961 28.527 32.2269 28.527 31.5246C28.527 30.8224 27.9172 30.2531 27.1647 30.2531Z" fill="#FBFBFB"/>
</svg>
