<svg width="42" height="43" viewBox="0 0 42 43" fill="none" xmlns="http://www.w3.org/2000/svg">
<g clip-path="url(#clip0)">
<path d="M32.814 43H9.18945C7.01791 43 5.25203 41.1921 5.25203 38.9689V23.292H2.1897C0.983927 23.292 0.00213623 22.2868 0.00213623 21.0523C0.00213623 20.4595 0.238612 19.8789 0.649721 19.458L20.0936 0.373587C20.6012 -0.124732 21.4026 -0.124732 21.9101 0.373587L41.3348 19.4363C41.7651 19.8789 42.0013 20.4595 42.0013 21.0523C42.0013 22.2868 41.0198 23.292 39.814 23.292H36.7514V38.9689C36.7514 41.1921 34.9858 43 32.814 43V43ZM3.27306 20.6045H6.5645C7.28899 20.6045 7.87697 21.2065 7.87697 21.9483V38.9689C7.87697 39.7106 8.46496 40.3126 9.18945 40.3126H32.814C33.5384 40.3126 34.1264 39.7106 34.1264 38.9689V21.9483C34.1264 21.2065 34.7144 20.6045 35.4389 20.6045H38.7307L21.0017 3.20603L3.27306 20.6045ZM39.499 21.3571H39.5163H39.499Z" fill="#FBFBFB"/>
</g>
<defs>
<clipPath id="clip0">
<rect width="42" height="43" fill="white"/>
</clipPath>
</defs>
</svg>
