<svg width="20" height="19" viewBox="0 0 20 19" fill="none" xmlns="http://www.w3.org/2000/svg">
<path d="M8.31342 11.0954C9.53936 12.3018 11.0227 13.2333 12.6593 13.8243L14.8733 12.1152C14.939 12.0713 15.0168 12.0478 15.0965 12.0478C15.1762 12.0478 15.254 12.0713 15.3197 12.1152L19.4306 14.6846C19.5867 14.7756 19.7188 14.9006 19.8166 15.0497C19.9143 15.1987 19.9749 15.3678 19.9937 15.5435C20.0125 15.7192 19.9889 15.8968 19.9249 16.0621C19.8608 16.2275 19.7579 16.3761 19.6245 16.4963L17.6982 18.3422C17.4223 18.6066 17.0833 18.8006 16.7113 18.907C16.3393 19.0134 15.9459 19.0288 15.5663 18.9518C11.7797 18.1931 8.28942 16.4162 5.49447 13.8243C2.76155 11.2066 0.870385 7.8758 0.0503803 4.23596C-0.0306256 3.87341 -0.0137186 3.49671 0.0994629 3.14237C0.212644 2.78803 0.418262 2.46805 0.696389 2.21346L2.69314 0.344787C2.81671 0.221606 2.9674 0.12714 3.13393 0.0684608C3.30046 0.00978156 3.47851 -0.01159 3.65476 0.00594638C3.83101 0.0234828 4.00089 0.0794727 4.15168 0.169724C4.30246 0.259975 4.43025 0.382148 4.52546 0.527096L7.26219 4.46385C7.30939 4.52566 7.33487 4.60056 7.33487 4.67749C7.33487 4.75442 7.30939 4.82932 7.26219 4.89113L5.45924 6.99339C6.08503 8.54926 7.06001 9.95047 8.31342 11.0954Z" fill="#545454"/>
</svg>
