<svg width="39" height="39" viewBox="0 0 39 39" fill="none" xmlns="http://www.w3.org/2000/svg">
<path d="M20.1649 3.9C19.4271 5.98314 19.2943 8.23266 19.7819 10.3882C20.2695 12.5436 21.3577 14.5169 22.9204 16.0796C24.4831 17.6423 26.4564 18.7305 28.6118 19.2181C30.7673 19.7057 33.0169 19.5729 35.1 18.8351V37.05C35.1 37.5672 34.8946 38.0632 34.5289 38.4289C34.1632 38.7946 33.6672 39 33.15 39H1.95C1.43283 39 0.936838 38.7946 0.571142 38.4289C0.205446 38.0632 0 37.5672 0 37.05V5.85C0 5.33283 0.205446 4.83684 0.571142 4.47114C0.936838 4.10545 1.43283 3.9 1.95 3.9H20.1649ZM31.2 15.6C29.1313 15.6 27.1474 14.7782 25.6846 13.3154C24.2218 11.8526 23.4 9.86869 23.4 7.8C23.4 5.73131 24.2218 3.74735 25.6846 2.28457C27.1474 0.821784 29.1313 0 31.2 0C33.2687 0 35.2526 0.821784 36.7154 2.28457C38.1782 3.74735 39 5.73131 39 7.8C39 9.86869 38.1782 11.8526 36.7154 13.3154C35.2526 14.7782 33.2687 15.6 31.2 15.6Z" fill="#404040"/>
</svg>
