<svg width="16" height="15" viewBox="0 0 16 15" fill="none" xmlns="http://www.w3.org/2000/svg">
<path fill-rule="evenodd" clip-rule="evenodd" d="M11.6659 8.98873C11.4662 8.89561 10.4876 8.44686 10.3054 8.38436C10.1231 8.32248 9.99051 8.29186 9.85721 8.47811C9.72457 8.66311 9.34341 9.08186 9.22753 9.20561C9.11097 9.32998 8.99508 9.34498 8.79613 9.25248C8.59717 9.15873 7.95543 8.96311 7.19513 8.33061C6.60363 7.83811 6.20371 7.22998 6.08782 7.04373C5.97193 6.85811 6.0751 6.75748 6.17491 6.66498C6.26467 6.58186 6.37386 6.44811 6.47367 6.33998C6.57348 6.23124 6.60631 6.15374 6.67262 6.02936C6.73961 5.90561 6.70612 5.79749 6.65588 5.70436C6.60631 5.61124 6.2084 4.69686 6.04227 4.32499C5.88083 3.96311 5.71671 4.01249 5.5948 4.00624C5.47824 4.00124 5.3456 3.99999 5.21297 3.99999C5.08033 3.99999 4.86463 4.04624 4.68243 4.23249C4.49955 4.41811 3.98576 4.86749 3.98576 5.78186C3.98576 6.69561 4.6985 7.57873 4.79831 7.70311C4.89813 7.82686 6.2017 9.7031 8.1986 10.5075C8.67421 10.6987 9.04465 10.8131 9.33337 10.8981C9.81032 11.04 10.2444 11.02 10.5874 10.9719C10.9692 10.9187 11.765 10.5225 11.9311 10.0887C12.0966 9.65498 12.0966 9.28311 12.047 9.20561C11.9975 9.12811 11.8648 9.08186 11.6652 8.98873H11.6659ZM8.03381 13.6156H8.03113C6.84507 13.6158 5.68079 13.3183 4.66032 12.7543L4.41916 12.6206L1.91249 13.2343L2.5817 10.9544L2.42428 10.7206C1.76119 9.73582 1.41028 8.59609 1.4121 7.43311C1.41344 4.02686 4.38366 1.25562 8.03649 1.25562C9.80496 1.25562 11.4676 1.89937 12.7176 3.06687C13.3341 3.63973 13.8228 4.32097 14.1553 5.07117C14.4878 5.82138 14.6576 6.62566 14.6549 7.43748C14.6535 10.8437 11.6833 13.6156 8.03381 13.6156V13.6156ZM13.6688 2.17999C12.9307 1.48682 12.0525 0.937204 11.0851 0.562994C10.1178 0.188785 9.08038 -0.00257817 8.03314 -4.90665e-06C3.64278 -4.90665e-06 0.0683272 3.33436 0.0669875 7.43248C0.0663176 8.74248 0.432739 10.0212 1.13008 11.1481L0 15L4.22289 13.9662C5.39107 14.56 6.70015 14.8712 8.03046 14.8712H8.03381C12.4242 14.8712 15.9986 11.5369 16 7.43811C16.0032 6.46141 15.7988 5.4938 15.3987 4.59126C14.9986 3.68872 14.4106 2.86916 13.6688 2.17999" fill="#37A963"/>
</svg>
