<svg width="38" height="38" viewBox="0 0 38 38" fill="none" xmlns="http://www.w3.org/2000/svg">
<path d="M32.0625 0H5.9375C2.66356 0 0 2.66356 0 5.9375V32.0625C0 35.3364 2.66356 38 5.9375 38H32.0625C35.3364 38 38 35.3364 38 32.0625V5.9375C38 2.66356 35.3364 0 32.0625 0ZM35.0312 32.0625C35.0312 33.6995 33.6995 35.0312 32.0625 35.0312H5.9375C4.30053 35.0312 2.96875 33.6995 2.96875 32.0625V5.9375C2.96875 4.30053 4.30053 2.96875 5.9375 2.96875H32.0625C33.6995 2.96875 35.0312 4.30053 35.0312 5.9375V32.0625Z" fill="#FBFBFB"/>
</svg>
