<svg width="24" height="43" viewBox="0 0 24 43" fill="none" xmlns="http://www.w3.org/2000/svg">
<path d="M20.0178 42.9998C19.5055 43.0013 18.9994 42.9001 18.5365 42.7034C18.0736 42.5068 17.6658 42.2198 17.3431 41.8635L0.780099 23.4366C0.275728 22.8871 0 22.1978 0 21.4865C0 20.7751 0.275728 20.0858 0.780099 19.5363L17.926 1.10946C18.5081 0.482278 19.3445 0.087869 20.2513 0.0129955C21.1581 -0.061878 22.0609 0.188917 22.7612 0.710208C23.4615 1.2315 23.9019 1.98058 23.9855 2.79267C24.0691 3.60476 23.7891 4.41334 23.207 5.04051L7.87852 21.5018L22.6926 37.9631C23.1119 38.4139 23.3783 38.9629 23.4602 39.545C23.5421 40.1271 23.4361 40.7181 23.1547 41.2479C22.8733 41.7778 22.4283 42.2244 21.8724 42.5348C21.3165 42.8453 20.6729 43.0066 20.0178 42.9998Z" fill="white"/>
</svg>
