<svg width="25" height="24" viewBox="0 0 25 24" fill="none" xmlns="http://www.w3.org/2000/svg">
<path d="M0.773275 20.4227L6.69545 15.5883C7.30798 15.0588 7.9627 14.8173 8.49085 14.8398C6.91912 13.0706 6.12167 10.7861 6.26561 8.46509C6.40955 6.14402 7.4837 3.96651 9.26299 2.38881C11.0423 0.811118 13.3886 -0.0443116 15.8103 0.00176961C18.2321 0.0478509 20.5412 0.991867 22.254 2.63601C23.9667 4.28015 24.9502 6.49682 24.9982 8.82153C25.0462 11.1462 24.155 13.3986 22.5115 15.1066C20.868 16.8146 18.5996 17.8457 16.1817 17.9839C13.7637 18.1221 11.3839 17.3566 9.54091 15.8478C9.56591 16.3548 9.31277 16.9833 8.76118 17.5713L3.72499 23.2562C2.86244 24.1757 1.45456 24.2537 0.59514 23.4287C-0.264278 22.6037 -0.183025 21.2507 0.774837 20.4242L0.773275 20.4227ZM15.624 14.9988C17.2817 14.9988 18.8715 14.3667 20.0437 13.2415C21.2158 12.1163 21.8743 10.5901 21.8743 8.99887C21.8743 7.40759 21.2158 5.88148 20.0437 4.75628C18.8715 3.63107 17.2817 2.99894 15.624 2.99894C13.9663 2.99894 12.3765 3.63107 11.2044 4.75628C10.0322 5.88148 9.37371 7.40759 9.37371 8.99887C9.37371 10.5901 10.0322 12.1163 11.2044 13.2415C12.3765 14.3667 13.9663 14.9988 15.624 14.9988V14.9988Z" fill="#151B66"/>
</svg>
