<svg width="20" height="19" viewBox="0 0 20 19" fill="none" xmlns="http://www.w3.org/2000/svg">
<path d="M16.7874 1.2803H3.19302C1.77166 1.2803 0.615234 2.37869 0.615234 3.7292V11.6327C0.615234 12.9802 1.76662 14.0768 3.18386 14.0816V17.6681L8.60939 14.0816H16.7874C18.2088 14.0816 19.3652 12.983 19.3652 11.6327V3.7292C19.3652 2.37869 18.2088 1.2803 16.7874 1.2803ZM18.2666 11.6327C18.2666 12.4075 17.6031 13.0379 16.7874 13.0379H8.26469L4.28249 15.6704V13.0379H3.19302C2.3774 13.0379 1.71387 12.4075 1.71387 11.6327V3.7292C1.71387 2.95425 2.3774 2.324 3.19302 2.324H16.7874C17.6031 2.324 18.2666 2.95425 18.2666 3.7292V11.6327Z" fill="#545454"/>
<path d="M5.63354 4.96817H14.3469V6.01187H5.63354V4.96817Z" fill="#545454"/>
<path d="M5.63354 7.19473H14.3469V8.23843H5.63354V7.19473Z" fill="#545454"/>
<path d="M5.63354 9.4213H14.3469V10.465H5.63354V9.4213Z" fill="#545454"/>
</svg>
